# xmcd CD database file
#
# Track frame offsets:
#	150
#	12047
#	23887
#	35607
#	46552
#	57935
#	70072
#	83215
#	96772
#	109447
#	124179
#	137132
#	149127
#	161952
#	173447
#	187302
#	199127
#	212105
#	224162
#	235930
#
# Disc length: 3337 seconds
#
# Revision: 3
# Processed by: cddbd v1.5.2PL0 Copyright (c) Steve Scherf et al.
# Submitted via: CDex 1.81
#
DISCID=320d0714
DTITLE=Conway Twitty and Loretta Lynn - 20 Greatest Hits
DYEAR=1987
DGENRE=Country
TTITLE0=After The Fire Is Gone
TTITLE1=It's Only Make Believe
TTITLE2=Pickin' Wild Mountain Berries
TTITLE3=Lead Me On
TTITLE4=Louisiana Woman, Mississippi Man
TTITLE5=As Soon As I Hang Up The Phone
TTITLE6=Spiders And Snakes
TTITLE7=Feelin's
TTITLE8=The Letter
TTITLE9=God Bless America Again
TTITLE10=I Can't Love You Enough
TTITLE11=From Seven To Ten
TTITLE12=I've Already Loved You In My Mind
TTITLE13=You're The Reason Our Kids Are Ugly
TTITLE14=The Sadness Of It All
TTITLE15=That's All That Matters To Me
TTITLE16=It's True Love
TTITLE17=You Know Just What I'd Do
TTITLE18=Lovin' What Your Lovin' Does To Me
TTITLE19=I Still Believe In Waltzes
EXTD=YEAR: 1987
EXTT0=
EXTT1=
EXTT2=
EXTT3=
EXTT4=
EXTT5=
EXTT6=
EXTT7=
EXTT8=
EXTT9=
EXTT10=
EXTT11=
EXTT12=
EXTT13=
EXTT14=
EXTT15=
EXTT16=
EXTT17=
EXTT18=
EXTT19=
PLAYORDER=
